HIERARCHY
ROOT Hips
{
	OFFSET -3.958830 18.904000 13.208200
	CHANNELS 6 Xposition Yposition Zposition Zrotation Yrotation Xrotation 
	JOINT LHipJoint
	{
		OFFSET 0.000000 0.000000 0.000000
		CHANNELS 3 Zrotation Yrotation Xrotation
		JOINT LeftUpLeg
		{
			OFFSET 1.800000 -1.400000 0.085000
			CHANNELS 3 Zrotation Yrotation Xrotation
			JOINT LeftLeg
			{
				OFFSET 2.215000 -6.000000 0.000000
				CHANNELS 3 Zrotation Yrotation Xrotation
				JOINT LeftFoot
				{
					OFFSET 2.500000 -6.900000 0.000000
					CHANNELS 3 Zrotation Yrotation Xrotation
					JOINT LeftToeBase
					{
						OFFSET 0.200000 -0.500000 1.950000
						CHANNELS 3 Zrotation Yrotation Xrotation
						End Site
						{
							OFFSET 0.000000 0.000000 0.000000
						}
					}
				}
			}
		}
	}
	JOINT RHipJoint
	{
		OFFSET 0.000000 0.000000 0.000000
		CHANNELS 3 Zrotation Yrotation Xrotation
		JOINT RightUpLeg
		{
			OFFSET -1.800000 -1.400000 0.085000
			CHANNELS 3 Zrotation Yrotation Xrotation
			JOINT RightLeg
			{
				OFFSET -2.215000 -6.000000 0.000000
				CHANNELS 3 Zrotation Yrotation Xrotation
				JOINT RightFoot
				{
					OFFSET -2.500000 -6.900000 0.000000
					CHANNELS 3 Zrotation Yrotation Xrotation
					JOINT RightToeBase
					{
						OFFSET -0.200000 -0.500000 1.950000
						CHANNELS 3 Zrotation Yrotation Xrotation
						End Site
						{
							OFFSET 0.000000 0.000000 0.000000
						}
					}
				}
			}
		}
	}
	JOINT LowerBack
	{
		OFFSET 0.000000 0.000000 0.000000
		CHANNELS 3 Zrotation Yrotation Xrotation
		JOINT Spine
		{
			OFFSET -0.087000 1.940000 -0.288900
			CHANNELS 3 Zrotation Yrotation Xrotation
			JOINT Spine1
			{
				OFFSET 0.000000 1.950000 0.060000
				CHANNELS 3 Zrotation Yrotation Xrotation
				JOINT Neck
				{
					OFFSET 0.000000 0.000000 0.000000
					CHANNELS 3 Zrotation Yrotation Xrotation
					JOINT Neck1
					{
						OFFSET 0.000000 1.600000 0.340000
						CHANNELS 3 Zrotation Yrotation Xrotation
						JOINT Head
						{
							OFFSET 0.000000 1.667000 -0.240000
							CHANNELS 3 Zrotation Yrotation Xrotation
							End Site
							{
								OFFSET 0.000000 0.000000 0.000000
							}
						}
					}
				}
				JOINT LeftShoulder
				{
					OFFSET 0.000000 0.000000 0.000000
					CHANNELS 3 Zrotation Yrotation Xrotation
					JOINT LeftArm
					{
						OFFSET 2.700000 1.550000 -0.730000
						CHANNELS 3 Zrotation Yrotation Xrotation
						JOINT LeftForeArm
						{
							OFFSET 5.450000 0.000000 0.000000
							CHANNELS 3 Zrotation Yrotation Xrotation
							JOINT LeftHand
							{
								OFFSET 3.450000 0.000000 0.000000
								CHANNELS 3 Zrotation Yrotation Xrotation
								JOINT LeftHandIndex1
								{
									OFFSET 0.750000 0.000000 0.000000
									CHANNELS 3 Zrotation Yrotation Xrotation
									End Site
									{
										OFFSET 0.000000 0.000000 0.000000
									}
								}
							}
						}
					}
				}
				JOINT RightShoulder
				{
					OFFSET 0.000000 0.000000 0.000000
					CHANNELS 3 Zrotation Yrotation Xrotation
					JOINT RightArm
					{
						OFFSET -2.700000 1.550000 -0.730000
						CHANNELS 3 Zrotation Yrotation Xrotation
						JOINT RightForeArm
						{
							OFFSET -5.450000 0.000000 0.000000
							CHANNELS 3 Zrotation Yrotation Xrotation
							JOINT RightHand
							{
								OFFSET -3.450000 0.000000 0.000000
								CHANNELS 3 Zrotation Yrotation Xrotation
								JOINT RightHandIndex1
								{
									OFFSET -0.750000 0.000000 0.000000
									CHANNELS 3 Zrotation Yrotation Xrotation
									End Site
									{
										OFFSET 0.000000 0.000000 0.000000
									}
								}
							}
						}
					}
				}
			}
		}
	}
}
MOTION
Frames: 9
Frame Time: 0.016667
-0.819390 15.947490 -0.990600 -5.394529 -21.778258 7.314224 -15.961091 9.394873 6.712028 25.632652 -6.057431 -49.218972 -43.831444 27.815188 35.587580 1.661373 12.597687 0.485746 0.482120 0.094770 0.528760 18.323865 -6.420899 4.456433 -25.280833 7.019929 -48.032298 27.621072 -20.661097 41.381223 -1.249707 -9.177387 1.281487 0.026310 0.149470 0.321620 -3.139464 -3.410066 -10.278911 11.413679 -0.754041 34.172653 5.799439 2.367548 0.684304 -2.247944 -7.722668 -8.103841 -16.463526 7.613650 31.420957 -12.425810 10.183190 -3.327580 -20.321081 -5.715078 1.157116 -3.297244 4.765987 -4.405330 -4.546293 -81.538316 2.535964 -3.804823 3.584768 0.300730 0.255070 -0.063950 0.187870 24.799663 13.061584 6.212365 32.670944 1.097930 -10.748170 12.479540 51.405540 4.086884 1.901840 -1.966398 -0.042240 -0.053430 -0.201720 -0.256860 
-0.849500 15.854210 -0.993830 -5.152952 -22.056449 6.983425 -16.055076 9.380196 6.684862 25.868559 -5.608329 -49.094654 -45.541649 28.421751 34.721697 1.727057 12.630309 0.477979 0.491070 0.104640 0.560430 18.263636 -6.102289 4.652811 -27.344955 6.966406 -48.887388 30.596482 -22.241754 41.677671 -1.395784 -9.644721 1.138142 0.015440 0.117610 0.341710 -2.940033 -3.820240 -10.401545 10.559833 -0.369423 35.312203 7.594491 2.426850 0.622696 -2.296625 -7.609468 -8.192750 -16.174123 7.986965 31.427997 -13.615790 10.798490 -3.688970 -20.988484 -6.340075 1.762270 -2.966025 5.702206 -3.748386 -14.402613 -74.644620 9.418933 -3.814399 3.643421 0.292150 0.250020 -0.040480 0.173820 25.777911 13.970229 6.048739 30.326773 2.200015 -10.946946 10.338257 52.896511 3.463171 1.901717 -1.990159 -0.013010 -0.083400 -0.213940 -0.259970 
-0.865700 15.805790 -0.997150 -4.931001 -22.179925 6.395841 -16.121727 9.447813 6.647260 26.002654 -5.257238 -48.526457 -46.459881 28.906791 34.400007 1.763800 12.652119 0.461881 0.500180 0.120690 0.578550 18.206377 -5.913005 4.752781 -28.720399 7.012852 -48.889972 32.695760 -23.100897 41.563764 -1.491579 -9.863333 1.079644 0.008310 0.076840 0.337840 -2.759747 -4.171526 -10.479232 9.876461 -0.036633 36.494420 9.139674 2.522094 0.755279 -2.289005 -7.509582 -8.652285 -16.129753 8.335612 32.326387 -14.287020 11.044100 -4.612020 -21.110654 -7.602745 2.590455 -4.772885 6.168025 -3.944193 -19.373785 -67.706973 11.367848 -3.752465 3.637667 0.315690 0.219730 -0.005750 0.165070 26.126295 15.476776 6.150181 29.508650 3.372713 -11.741412 6.551118 53.798813 1.892000 1.895466 -1.952923 0.001620 -0.087520 -0.223450 -0.264760 
-0.862990 15.791030 -0.986240 -5.005695 -22.101540 6.340216 -16.136063 9.447786 6.630724 26.106423 -5.045539 -48.340098 -46.359184 29.175708 34.635351 1.804366 12.677775 0.451507 0.495030 0.107950 0.594100 18.192800 -5.845568 4.832329 -29.819414 6.957826 -48.648286 34.813366 -23.528138 40.497489 -1.539318 -9.902835 1.069233 -0.022530 0.047150 0.348060 -2.715337 -4.226462 -10.556039 10.237564 -0.084884 36.314357 9.881938 2.424590 1.399328 -2.013989 -6.961305 -9.541477 -15.251106 8.312072 34.277309 -14.659320 11.354220 -4.346160 -20.903767 -9.692484 3.771654 -7.868478 6.597966 -4.624934 -22.037600 -60.741140 11.303574 -3.679918 3.620443 0.329370 0.199030 0.022340 0.154780 25.572316 17.338405 6.433778 30.547512 4.526729 -12.894878 0.902900 53.275684 -0.707533 1.899293 -1.881660 0.023890 -0.108670 -0.229640 -0.265810 
-0.857330 15.803110 -0.958340 -4.464845 -21.788338 6.780978 -16.090216 9.366053 6.594958 25.422349 -5.206738 -48.607454 -45.819887 29.181003 34.939832 1.820917 12.638352 0.454339 0.497620 0.118140 0.613000 18.231996 -5.929169 4.894744 -30.670218 6.672026 -48.763151 35.233632 -23.350540 39.774871 -1.518731 -9.834575 1.082606 -0.028960 0.015550 0.347180 -2.826146 -3.912450 -10.585030 10.480129 -0.144414 34.490016 9.854642 2.074526 2.069929 -2.028394 -6.069033 -10.025710 -13.457971 7.880506 35.684792 -15.108660 11.798180 -3.822520 -20.380067 -11.057052 4.647287 -11.264359 6.225277 -5.056850 -24.082017 -54.552154 10.859892 -3.639345 3.596730 0.315760 0.194050 0.034770 0.143310 25.134750 18.083501 6.258852 33.357363 6.068064 -13.889169 -4.847957 53.045302 -3.494136 1.901030 -1.820710 0.043220 -0.136640 -0.245500 -0.269500 
-0.842280 15.859200 -0.930170 -3.712892 -21.549701 6.690298 -16.016194 9.396034 6.516064 24.147968 -5.595679 -48.437190 -43.848533 28.949359 36.159777 1.789642 12.606770 0.442333 0.522660 0.144450 0.654000 18.269280 -6.171623 4.852957 -30.448422 6.778387 -48.318826 33.444567 -22.345968 39.833390 -1.457415 -9.599066 1.143757 -0.023020 -0.025450 0.344640 -2.948529 -3.519956 -10.541104 10.573496 0.014672 32.941886 9.351338 1.959019 3.116519 -1.895906 -5.140417 -10.634852 -11.666026 7.413902 37.483752 -15.568140 12.079650 -4.356120 -19.685955 -12.725484 5.456628 -14.919081 5.082779 -5.527130 -25.394654 -48.569312 9.809612 -3.600803 3.516016 0.337370 0.174180 0.065980 0.135920 24.180669 19.186925 6.313657 37.326709 7.790400 -15.223069 -11.876390 52.571361 -7.040644 1.883289 -1.723586 0.053460 -0.140550 -0.264850 -0.284900 
-0.815660 15.955280 -0.895290 -3.059639 -20.874743 6.622729 -15.913306 9.503539 6.451577 22.507008 -6.174244 -48.281396 -41.236358 28.323403 37.565289 1.755600 12.510180 0.452095 0.550770 0.176580 0.687030 18.310739 -6.562998 4.685133 -29.206536 6.902072 -47.222243 29.856607 -20.490577 39.870429 -1.319549 -9.120772 1.265510 -0.014340 -0.064990 0.345080 -3.090071 -3.077152 -10.435023 10.970668 0.066624 31.051336 8.763811 1.879984 4.064114 -1.783287 -4.352970 -11.156080 -10.223680 6.972918 39.439414 -15.635060 12.205720 -4.175240 -19.759415 -14.396384 6.138397 -18.495258 3.399810 -5.719918 -26.661121 -43.250317 8.712009 -3.575494 3.456836 0.344240 0.153070 0.095420 0.137880 24.016177 20.282668 6.463472 40.907242 9.366726 -16.669490 -19.728880 52.641067 -11.176657 1.876792 -1.651265 0.072310 -0.157440 -0.294380 -0.287870 
-0.779810 16.085470 -0.856500 -2.737599 -20.591619 6.654039 -15.781064 9.713928 6.320903 20.471752 -6.576754 -47.598831 -37.253996 27.015236 39.074778 1.661194 12.270474 0.496441 0.539650 0.178390 0.669180 18.356535 -7.071317 4.467685 -26.831299 7.350266 -45.923715 25.443644 -18.098880 39.758617 -1.128737 -8.437193 1.471305 -0.024670 -0.066230 0.338600 -3.273643 -2.585590 -10.258968 11.769565 0.235048 28.996964 7.883387 2.118831 5.113824 -1.593395 -3.778581 -11.773482 -9.267337 6.504642 41.435176 -15.185560 11.796130 -3.545340 -19.546582 -15.930650 6.740469 -23.419699 1.139280 -5.750317 -25.850488 -37.778066 6.760747 -3.587789 3.356437 0.340110 0.147050 0.103060 0.136090 23.365227 21.376235 6.923068 45.001150 10.252048 -18.579484 -26.731027 54.318285 -15.735974 1.848963 -1.545124 0.083530 -0.149820 -0.286980 -0.274860 
-0.748790 16.216740 -0.809010 -2.225842 -20.191101 7.242689 -15.696542 9.923415 6.237311 18.409108 -7.145324 -47.705180 -33.067543 25.814899 41.107137 1.533465 12.143935 0.532062 0.483970 0.101190 0.635440 18.371109 -7.524761 4.207664 -24.418698 7.330557 -44.564262 21.333205 -15.562108 38.315315 -0.882977 -7.581066 1.748332 -0.048430 -0.012470 0.334490 -3.348217 -2.234488 -10.064184 11.343300 0.593974 26.235986 7.653041 2.167281 5.218896 -1.511906 -2.936086 -11.481744 -7.606952 6.077947 42.125061 -15.159490 11.912640 -2.341800 -19.753037 -15.749883 6.656002 -28.637223 -1.314797 -4.959656 -25.545105 -31.892998 5.102129 -3.680739 3.246135 0.345920 0.185680 0.065050 0.128640 23.359133 20.528599 6.623004 48.141425 11.078534 -19.608384 -29.017594 58.399488 -18.743865 1.783621 -1.432509 0.037480 -0.121690 -0.246670 -0.286080 
